<?xml version="1.0" encoding="UTF-8"?>
<svg id="Layer_2" data-name="Layer 2" xmlns="http://www.w3.org/2000/svg" xmlns:xlink="http://www.w3.org/1999/xlink" viewBox="0 0 351.84 351.84">
  <defs>
    <style>
      .cls-1 {
        fill: url(#linear-gradient);
      }

      .cls-2 {
        fill: #fff;
      }
    </style>
    <linearGradient id="linear-gradient" x1=".15" y1="1.58" x2="350.7" y2="349.28" gradientUnits="userSpaceOnUse">
      <stop offset="0" stop-color="#4226a8"/>
      <stop offset="1" stop-color="#d3479b"/>
    </linearGradient>
  </defs>
  <g id="Layer_1-2" data-name="Layer 1">
    <g>
      <rect class="cls-1" width="351.84" height="351.84"/>
      <g>
        <path class="cls-2" d="m291.21,189.89l-1.48-1.55h-10.26l3.59-75.86-14.8-.45-2.77,49.31c-59.6-3.24-119.33-3.24-178.92-.02l-1.73-64.96-14.8.45,2.5,91.53h-10.48l-1.41,1.47c-1.55,16.23-.66,32.68,2.26,48.89h10.83l.18,1.27c.67,19.34,16.1,34.68,35.9,34.68s44.86-.92,66.12-.92,46.56.92,65.95.92,35.19-15.29,35.9-34.61l.16-1.34h11.02c2.91-16.19,3.81-32.61,2.26-48.81Zm-158.23,58.01c-17.27,0-30.25-13.78-30.25-29.78s12.99-29.78,30.25-29.78,29.62,13.94,29.62,29.94-12.35,29.62-29.62,29.62Zm86.51,0c-17.27,0-30.25-13.78-30.25-29.78s12.99-29.78,30.25-29.78,29.62,13.94,29.62,29.94-12.35,29.62-29.62,29.62Z"/>
        <polygon class="cls-2" points="171.64 103.58 153.26 131.16 153.4 131.66 245.76 119.7 250.82 108.87 174.2 117.74 177.58 112.67 177.57 112.66 198.26 81.68 198.13 81.19 107.54 92.78 102.73 103.46 178.22 93.8 171.64 103.58"/>
        <path class="cls-2" d="m132.84,202.66c-8.67,0-15.73,6.93-15.73,15.46s7.06,15.46,15.73,15.46,15.37-6.75,15.37-15.37-6.75-15.55-15.37-15.55Z"/>
        <path class="cls-2" d="m219.35,202.66c-8.67,0-15.73,6.93-15.73,15.46s7.06,15.46,15.73,15.46,15.37-6.75,15.37-15.37-6.75-15.55-15.37-15.55Z"/>
      </g>
    </g>
  </g>
</svg>